<svg xmlns="http://www.w3.org/2000/svg" xmlns:xlink="http://www.w3.org/1999/xlink" width="500" zoomAndPan="magnify" viewBox="0 0 375 374.999991" height="500" preserveAspectRatio="xMidYMid meet" version="1.0"><defs><clipPath id="071610ff86"><path d="M 116 94 L 262.5 94 L 262.5 233.203125 L 116 233.203125 Z M 116 94 " clip-rule="nonzero"/></clipPath><clipPath id="5f8964c446"><path d="M 112.5 87.703125 L 167 87.703125 L 167 227 L 112.5 227 Z M 112.5 87.703125 " clip-rule="nonzero"/></clipPath></defs><rect x="-37.5" width="450" fill="#ffffff" y="-37.499999" height="449.999989" fill-opacity="1"/><rect x="-37.5" width="450" fill="#ffffff" y="-37.499999" height="449.999989" fill-opacity="1"/><g clip-path="url(#071610ff86)"><path fill="#ff3131" d="M 262.5 224.476562 L 186.875 224.476562 C 184.609375 229.613281 179.441406 233.160156 173.449219 233.097656 C 168.832031 233.039062 164.761719 230.804688 162.164062 227.410156 C 161.765625 226.890625 162.132812 226.15625 162.804688 226.15625 L 172.835938 226.1875 L 177.453125 218.695312 L 172.835938 211.171875 L 162.804688 211.140625 C 162.164062 211.140625 161.796875 210.40625 162.195312 209.886719 C 164.886719 206.402344 169.105469 204.167969 173.84375 204.230469 C 179.65625 204.320312 184.609375 207.839844 186.84375 212.824219 L 250.816406 212.824219 L 250.816406 149.398438 L 189.410156 108.847656 L 127.945312 149.398438 L 127.945312 213.464844 L 116.261719 213.464844 L 116.261719 143.097656 L 189.410156 94.839844 L 262.5 143.097656 Z M 262.5 224.476562 " fill-opacity="1" fill-rule="nonzero"/></g><path fill="#ff3131" d="M 220.480469 199.855469 L 237.851562 182.488281 L 237.851562 199.855469 Z M 220.480469 199.855469 " fill-opacity="1" fill-rule="nonzero"/><path fill="#545454" d="M 248.859375 157.6875 L 195.648438 210.898438 L 203.875 210.898438 L 203.875 206.707031 C 203.875 206.339844 204.183594 206.035156 204.550781 206.035156 C 204.914062 206.035156 205.222656 206.339844 205.222656 206.707031 L 205.222656 210.898438 L 209.808594 210.898438 L 209.808594 206.707031 C 209.808594 206.339844 210.113281 206.035156 210.480469 206.035156 C 210.847656 206.035156 211.15625 206.339844 211.15625 206.707031 L 211.15625 210.898438 L 215.742188 210.898438 L 215.742188 206.707031 C 215.742188 206.339844 216.046875 206.035156 216.414062 206.035156 C 216.78125 206.035156 217.085938 206.339844 217.085938 206.707031 L 217.085938 210.898438 L 221.675781 210.898438 L 221.675781 206.707031 C 221.675781 206.339844 221.980469 206.035156 222.347656 206.035156 C 222.714844 206.035156 223.019531 206.339844 223.019531 206.707031 L 223.019531 210.898438 L 227.605469 210.898438 L 227.605469 206.707031 C 227.605469 206.339844 227.914062 206.035156 228.28125 206.035156 C 228.648438 206.035156 228.953125 206.339844 228.953125 206.707031 L 228.953125 210.898438 L 233.539062 210.898438 L 233.539062 206.707031 C 233.539062 206.339844 233.84375 206.035156 234.210938 206.035156 C 234.578125 206.035156 234.886719 206.339844 234.886719 206.707031 L 234.886719 210.898438 L 239.472656 210.898438 L 239.472656 206.707031 C 239.472656 206.339844 239.777344 206.035156 240.144531 206.035156 C 240.511719 206.035156 240.816406 206.339844 240.816406 206.707031 L 240.816406 210.898438 L 249.042969 210.898438 L 249.042969 202.671875 L 244.855469 202.671875 C 244.488281 202.671875 244.183594 202.363281 244.183594 201.996094 C 244.183594 201.628906 244.488281 201.324219 244.855469 201.324219 L 249.042969 201.324219 L 249.042969 196.738281 L 244.855469 196.738281 C 244.488281 196.738281 244.183594 196.433594 244.183594 196.066406 C 244.183594 195.699219 244.488281 195.390625 244.855469 195.390625 L 249.042969 195.390625 L 249.042969 190.804688 L 244.855469 190.804688 C 244.488281 190.804688 244.183594 190.5 244.183594 190.132812 C 244.183594 189.765625 244.488281 189.460938 244.855469 189.460938 L 249.042969 189.460938 L 249.042969 184.871094 L 244.855469 184.871094 C 244.488281 184.871094 244.183594 184.566406 244.183594 184.199219 C 244.183594 183.832031 244.488281 183.527344 244.855469 183.527344 L 249.042969 183.527344 L 249.042969 178.941406 L 244.855469 178.941406 C 244.488281 178.941406 244.183594 178.632812 244.183594 178.265625 C 244.183594 177.898438 244.488281 177.59375 244.855469 177.59375 L 249.042969 177.59375 L 249.042969 173.007812 L 244.855469 173.007812 C 244.488281 173.007812 244.183594 172.699219 244.183594 172.335938 C 244.183594 171.96875 244.488281 171.660156 244.855469 171.660156 L 249.042969 171.660156 L 249.042969 167.074219 L 244.855469 167.074219 C 244.488281 167.074219 244.183594 166.769531 244.183594 166.402344 C 244.183594 166.035156 244.488281 165.730469 244.855469 165.730469 L 249.042969 165.730469 L 249.042969 157.6875 Z M 238.339844 181.292969 C 238.832031 181.507812 239.167969 181.96875 239.167969 182.519531 L 239.167969 199.886719 C 239.167969 200.621094 238.585938 201.203125 237.851562 201.203125 L 220.480469 201.203125 C 219.929688 201.203125 219.472656 200.867188 219.257812 200.375 C 219.195312 200.222656 219.167969 200.039062 219.167969 199.855469 C 219.167969 199.519531 219.289062 199.183594 219.5625 198.910156 L 236.933594 181.539062 C 237.269531 181.203125 237.851562 181.082031 238.339844 181.292969 Z M 238.339844 181.292969 " fill-opacity="1" fill-rule="nonzero"/><g clip-path="url(#5f8964c446)"><path fill="#545454" d="M 149.074219 119.125 L 137.394531 126.828125 L 137.394531 111.539062 L 149.074219 111.539062 Z M 164.488281 87.777344 C 162.378906 87.746094 160.296875 87.777344 158.1875 87.777344 C 157.636719 87.777344 157.238281 88.023438 156.996094 88.480469 C 156.382812 89.613281 154.761719 91.570312 153.019531 91.570312 C 150.757812 91.628906 149.257812 88.726562 147.148438 88.632812 C 142.804688 88.480469 138.464844 88.664062 134.121094 88.632812 C 125.496094 89.03125 118.492188 92.273438 112.804688 108.96875 C 112.714844 109.304688 112.5 109.796875 112.898438 109.980469 C 114.488281 110.683594 121.613281 98.574219 131.644531 100.804688 C 137.363281 102.058594 137.453125 107.839844 137.394531 110.101562 L 149.105469 110.101562 C 149.105469 108.390625 149.105469 106.675781 149.105469 104.964844 C 149.136719 103.191406 149.6875 101.660156 151.0625 100.46875 C 152.011719 99.644531 153.480469 99.519531 154.609375 100.039062 C 155.710938 100.558594 156.324219 101.507812 156.875 102.488281 C 157.210938 103.097656 157.667969 103.375 158.371094 103.34375 C 160.390625 103.3125 162.410156 103.34375 164.425781 103.34375 C 165.863281 103.34375 166.84375 102.363281 166.84375 100.925781 C 166.84375 97.347656 166.84375 93.769531 166.84375 90.222656 C 166.875 88.816406 165.894531 87.808594 164.488281 87.777344 Z M 137.394531 146.1875 L 140.910156 146.1875 C 141.308594 146.1875 141.644531 146.523438 141.644531 146.921875 C 141.644531 147.320312 141.308594 147.65625 140.910156 147.65625 L 137.394531 147.65625 L 137.394531 150.804688 L 143.660156 150.804688 C 144.089844 150.804688 144.394531 151.140625 144.394531 151.539062 C 144.394531 151.9375 144.058594 152.273438 143.660156 152.273438 L 137.394531 152.273438 L 137.394531 155.421875 L 140.910156 155.421875 C 141.308594 155.421875 141.644531 155.757812 141.644531 156.15625 C 141.644531 156.554688 141.308594 156.890625 140.910156 156.890625 L 137.394531 156.890625 L 137.394531 160.039062 L 143.660156 160.039062 C 144.089844 160.039062 144.394531 160.375 144.394531 160.773438 C 144.394531 161.171875 144.058594 161.507812 143.660156 161.507812 L 137.394531 161.507812 L 137.394531 164.660156 L 140.910156 164.660156 C 141.308594 164.660156 141.644531 164.996094 141.644531 165.390625 C 141.644531 165.789062 141.308594 166.125 140.910156 166.125 L 137.394531 166.125 L 137.394531 169.277344 L 143.660156 169.277344 C 144.089844 169.277344 144.394531 169.613281 144.394531 170.011719 C 144.394531 170.40625 144.058594 170.742188 143.660156 170.742188 L 137.394531 170.742188 L 137.394531 173.894531 L 140.910156 173.894531 C 141.308594 173.894531 141.644531 174.230469 141.644531 174.628906 C 141.644531 175.023438 141.308594 175.363281 140.910156 175.363281 L 137.394531 175.363281 L 137.394531 178.601562 L 143.660156 178.601562 C 144.089844 178.601562 144.394531 178.941406 144.394531 179.335938 C 144.394531 179.734375 144.058594 180.070312 143.660156 180.070312 L 137.394531 180.070312 L 137.394531 183.222656 L 140.910156 183.222656 C 141.308594 183.222656 141.644531 183.558594 141.644531 183.953125 C 141.644531 184.351562 141.308594 184.6875 140.910156 184.6875 L 137.394531 184.6875 L 137.394531 187.871094 L 143.660156 187.871094 C 144.089844 187.871094 144.394531 188.207031 144.394531 188.601562 C 144.394531 189 144.058594 189.335938 143.660156 189.335938 L 137.394531 189.335938 L 137.394531 192.488281 L 140.910156 192.488281 C 141.308594 192.488281 141.644531 192.824219 141.644531 193.222656 C 141.644531 193.617188 141.308594 193.953125 140.910156 193.953125 L 137.394531 193.953125 L 137.394531 197.136719 L 143.660156 197.136719 C 144.089844 197.136719 144.394531 197.472656 144.394531 197.871094 C 144.394531 198.265625 144.058594 198.601562 143.660156 198.601562 L 137.394531 198.601562 L 137.394531 201.785156 L 140.910156 201.785156 C 141.308594 201.785156 141.644531 202.121094 141.644531 202.515625 C 141.644531 202.914062 141.308594 203.25 140.910156 203.25 L 137.394531 203.25 L 137.394531 206.433594 L 143.660156 206.433594 C 144.089844 206.433594 144.394531 206.769531 144.394531 207.164062 C 144.394531 207.5625 144.058594 207.898438 143.660156 207.898438 L 137.394531 207.898438 L 137.394531 211.019531 L 140.910156 211.019531 C 141.308594 211.019531 141.644531 211.355469 141.644531 211.753906 C 141.644531 212.152344 141.308594 212.488281 140.910156 212.488281 L 137.394531 212.488281 L 137.394531 215.148438 L 116.261719 215.148438 L 116.261719 226.828125 L 116.84375 226.828125 L 116.84375 223.3125 C 116.84375 222.882812 117.179688 222.578125 117.578125 222.578125 C 117.972656 222.578125 118.308594 222.914062 118.308594 223.3125 L 118.308594 226.828125 L 121.492188 226.828125 L 121.492188 220.558594 C 121.492188 220.132812 121.828125 219.828125 122.226562 219.828125 C 122.621094 219.828125 122.957031 220.164062 122.957031 220.558594 L 122.957031 226.828125 L 126.109375 226.828125 L 126.109375 223.3125 C 126.109375 222.882812 126.445312 222.578125 126.84375 222.578125 C 127.238281 222.578125 127.578125 222.914062 127.578125 223.3125 L 127.578125 226.828125 L 130.757812 226.828125 L 130.757812 220.558594 C 130.757812 220.132812 131.09375 219.828125 131.492188 219.828125 C 131.886719 219.828125 132.226562 220.164062 132.226562 220.558594 L 132.226562 226.828125 L 135.40625 226.828125 L 135.40625 223.3125 C 135.40625 222.882812 135.742188 222.578125 136.140625 222.578125 C 136.535156 222.578125 136.875 222.914062 136.875 223.3125 L 136.875 226.828125 L 140.054688 226.828125 L 140.054688 220.558594 C 140.054688 220.132812 140.390625 219.828125 140.789062 219.828125 C 141.183594 219.828125 141.519531 220.164062 141.519531 220.558594 L 141.519531 226.828125 L 144.703125 226.828125 L 144.703125 223.3125 C 144.703125 222.882812 145.039062 222.578125 145.4375 222.578125 C 145.832031 222.578125 146.167969 222.914062 146.167969 223.3125 L 146.167969 226.828125 L 149.167969 226.828125 L 149.167969 138.328125 L 137.484375 146.035156 L 137.484375 146.1875 Z M 137.394531 146.1875 " fill-opacity="1" fill-rule="nonzero"/></g><path fill="#ff3131" d="M 172.714844 164.445312 L 188.28125 164.445312 L 188.28125 180.011719 L 174.945312 180.011719 C 173.722656 180.011719 172.714844 179.03125 172.714844 177.777344 Z M 190.480469 164.445312 L 190.480469 180.011719 L 203.816406 180.011719 C 205.039062 180.011719 206.046875 179.03125 206.046875 177.777344 L 206.046875 164.445312 Z M 172.714844 148.878906 L 172.714844 162.210938 L 188.28125 162.210938 L 188.28125 146.644531 L 174.945312 146.644531 C 173.691406 146.675781 172.714844 147.65625 172.714844 148.878906 Z M 203.816406 146.675781 L 190.480469 146.675781 L 190.480469 162.242188 L 206.046875 162.242188 L 206.046875 148.910156 C 206.046875 147.65625 205.070312 146.675781 203.816406 146.675781 Z M 203.816406 146.675781 " fill-opacity="1" fill-rule="nonzero"/></svg>